<svg width="14" height="15" viewBox="0 0 14 15" fill="none"
  xmlns="http://www.w3.org/2000/svg">
  <path d="M9.16016 5.53516L6.125 8.59766L4.8125 7.28516C4.53906 7.03906 4.12891 7.03906 3.88281 7.28516C3.60938 7.55859 3.60938 7.96875 3.88281 8.21484L5.63281 9.96484C5.76953 10.1016 5.93359 10.1562 6.125 10.1562C6.28906 10.1562 6.45312 10.1016 6.5625 9.96484L10.0625 6.46484C10.3359 6.21875 10.3359 5.80859 10.0625 5.5625C9.81641 5.28906 9.40625 5.28906 9.16016 5.53516ZM7 0.75C3.11719 0.75 0 3.89453 0 7.75C0 11.6328 3.11719 14.75 7 14.75C10.8555 14.75 14 11.6328 14 7.75C14 3.89453 10.8555 0.75 7 0.75ZM7 13.4375C3.85547 13.4375 1.3125 10.8945 1.3125 7.75C1.3125 4.63281 3.85547 2.0625 7 2.0625C10.1172 2.0625 12.6875 4.63281 12.6875 7.75C12.6875 10.8945 10.1172 13.4375 7 13.4375Z" fill="#008060"/>
</svg>
